{
    "asset" : {
        "generator" : "Khronos glTF Blender I/O v3.2.43",
        "version" : "2.0"
    },
    "scene" : 0,
    "scenes" : [
        {
            "name" : "Scene",
            "nodes" : [
                0,
                1,
                2,
                3
            ]
        }
    ],
    "nodes" : [
        {
            "mesh" : 0,
            "name" : "Plane",
            "scale" : [
                5.522643089294434,
                5.522643089294434,
                5.522643089294434
            ],
            "translation" : [
                0.008870124816894531,
                0.13344144821166992,
                0.02329397201538086
            ]
        },
        {
            "mesh" : 1,
            "name" : "Plane.001",
            "scale" : [
                5.522643089294434,
                5.522643089294434,
                5.522643089294434
            ],
            "translation" : [
                0.008870124816894531,
                0.3233468532562256,
                0.02329397201538086
            ]
        },
        {
            "mesh" : 2,
            "name" : "Cube",
            "rotation" : [
                0,
                -0.32282206416130066,
                0,
                0.9464597105979919
            ],
            "scale" : [
                0.27613213658332825,
                0.05522643029689789,
                0.5522642731666565
            ],
            "translation" : [
                -1.081699252128601,
                2.6180593967437744,
                -0.02719736099243164
            ]
        },
        {
            "mesh" : 3,
            "name" : "Cylinder",
            "rotation" : [
                0.5969486236572266,
                -0.2838720381259918,
                0.2046833485364914,
                0.7219236493110657
            ],
            "scale" : [
                0.038053106516599655,
                4.112839221954346,
                0.02577265165746212
            ],
            "translation" : [
                -0.5896927118301392,
                2.784886121749878,
                -0.6570544242858887
            ]
        }
    ],
    "materials" : [
        {
            "doubleSided" : true,
            "name" : "Material.001",
            "pbrMetallicRoughness" : {
                "metallicFactor" : 0,
                "roughnessFactor" : 0.5
            }
        },
        {
            "doubleSided" : true,
            "name" : "Materialake_blue",
            "pbrMetallicRoughness" : {
                "baseColorFactor" : [
                    0.135554239153862,
                    0.528393566608429,
                    0.8000000715255737,
                    1
                ],
                "metallicFactor" : 0.5,
                "roughnessFactor" : 0.5
            }
        },
        {
            "doubleSided" : true,
            "name" : "Material.003",
            "pbrMetallicRoughness" : {
                "baseColorFactor" : [
                    0.8000000715255737,
                    0.08339570462703705,
                    0.0962621346116066,
                    1
                ],
                "metallicFactor" : 0,
                "roughnessFactor" : 0.5
            }
        },
        {
            "doubleSided" : true,
            "name" : "Material.004",
            "pbrMetallicRoughness" : {
                "baseColorFactor" : [
                    0.016683436930179596,
                    0.016683436930179596,
                    0.016683436930179596,
                    1
                ],
                "metallicFactor" : 0,
                "roughnessFactor" : 0.5
            }
        }
    ],
    "meshes" : [
        {
            "name" : "Plane",
            "primitives" : [
                {
                    "attributes" : {
                        "POSITION" : 0,
                        "NORMAL" : 1,
                        "TEXCOORD_0" : 2
                    },
                    "indices" : 3,
                    "material" : 0
                }
            ]
        },
        {
            "name" : "Plane.001",
            "primitives" : [
                {
                    "attributes" : {
                        "POSITION" : 4,
                        "NORMAL" : 5,
                        "TEXCOORD_0" : 6
                    },
                    "indices" : 7,
                    "material" : 1
                }
            ]
        },
        {
            "name" : "Cube.001",
            "primitives" : [
                {
                    "attributes" : {
                        "POSITION" : 8,
                        "NORMAL" : 9,
                        "TEXCOORD_0" : 10
                    },
                    "indices" : 11,
                    "material" : 2
                }
            ]
        },
        {
            "name" : "Cylinder.001",
            "primitives" : [
                {
                    "attributes" : {
                        "POSITION" : 12,
                        "NORMAL" : 13,
                        "TEXCOORD_0" : 14
                    },
                    "indices" : 15,
                    "material" : 3
                }
            ]
        }
    ],
    "accessors" : [
        {
            "bufferView" : 0,
            "componentType" : 5126,
            "count" : 2025,
            "max" : [
                1,
                0.7210778594017029,
                1
            ],
            "min" : [
                -1,
                0,
                -1.0009993314743042
            ],
            "type" : "VEC3"
        },
        {
            "bufferView" : 1,
            "componentType" : 5126,
            "count" : 2025,
            "type" : "VEC3"
        },
        {
            "bufferView" : 2,
            "componentType" : 5126,
            "count" : 2025,
            "type" : "VEC2"
        },
        {
            "bufferView" : 3,
            "componentType" : 5123,
            "count" : 11616,
            "type" : "SCALAR"
        },
        {
            "bufferView" : 4,
            "componentType" : 5126,
            "count" : 4,
            "max" : [
                1,
                0,
                1
            ],
            "min" : [
                -1,
                0,
                -1
            ],
            "type" : "VEC3"
        },
        {
            "bufferView" : 5,
            "componentType" : 5126,
            "count" : 4,
            "type" : "VEC3"
        },
        {
            "bufferView" : 6,
            "componentType" : 5126,
            "count" : 4,
            "type" : "VEC2"
        },
        {
            "bufferView" : 7,
            "componentType" : 5123,
            "count" : 6,
            "type" : "SCALAR"
        },
        {
            "bufferView" : 8,
            "componentType" : 5126,
            "count" : 700,
            "max" : [
                0.5614180564880371,
                7.24700403213501,
                0.5614180564880371
            ],
            "min" : [
                -0.5614180564880371,
                -4.829150676727295,
                -0.5614180564880371
            ],
            "type" : "VEC3"
        },
        {
            "bufferView" : 9,
            "componentType" : 5126,
            "count" : 700,
            "type" : "VEC3"
        },
        {
            "bufferView" : 10,
            "componentType" : 5126,
            "count" : 700,
            "type" : "VEC2"
        },
        {
            "bufferView" : 11,
            "componentType" : 5123,
            "count" : 1320,
            "type" : "SCALAR"
        },
        {
            "bufferView" : 12,
            "componentType" : 5126,
            "count" : 192,
            "max" : [
                1,
                1,
                1
            ],
            "min" : [
                -1,
                -1,
                -1
            ],
            "type" : "VEC3"
        },
        {
            "bufferView" : 13,
            "componentType" : 5126,
            "count" : 192,
            "type" : "VEC3"
        },
        {
            "bufferView" : 14,
            "componentType" : 5126,
            "count" : 192,
            "type" : "VEC2"
        },
        {
            "bufferView" : 15,
            "componentType" : 5123,
            "count" : 372,
            "type" : "SCALAR"
        }
    ],
    "bufferViews" : [
        {
            "buffer" : 0,
            "byteLength" : 24300,
            "byteOffset" : 0
        },
        {
            "buffer" : 0,
            "byteLength" : 24300,
            "byteOffset" : 24300
        },
        {
            "buffer" : 0,
            "byteLength" : 16200,
            "byteOffset" : 48600
        },
        {
            "buffer" : 0,
            "byteLength" : 23232,
            "byteOffset" : 64800
        },
        {
            "buffer" : 0,
            "byteLength" : 48,
            "byteOffset" : 88032
        },
        {
            "buffer" : 0,
            "byteLength" : 48,
            "byteOffset" : 88080
        },
        {
            "buffer" : 0,
            "byteLength" : 32,
            "byteOffset" : 88128
        },
        {
            "buffer" : 0,
            "byteLength" : 12,
            "byteOffset" : 88160
        },
        {
            "buffer" : 0,
            "byteLength" : 8400,
            "byteOffset" : 88172
        },
        {
            "buffer" : 0,
            "byteLength" : 8400,
            "byteOffset" : 96572
        },
        {
            "buffer" : 0,
            "byteLength" : 5600,
            "byteOffset" : 104972
        },
        {
            "buffer" : 0,
            "byteLength" : 2640,
            "byteOffset" : 110572
        },
        {
            "buffer" : 0,
            "byteLength" : 2304,
            "byteOffset" : 113212
        },
        {
            "buffer" : 0,
            "byteLength" : 2304,
            "byteOffset" : 115516
        },
        {
            "buffer" : 0,
            "byteLength" : 1536,
            "byteOffset" : 117820
        },
        {
            "buffer" : 0,
            "byteLength" : 744,
            "byteOffset" : 119356
        }
    ],
    "buffers" : [
        {
            "byteLength" : 120100,
            "uri" : "valley.bin"
        }
    ]
}
